# xmcd
#
# Track frame offsets:
#	150
#	39895
#	76632
#	115782
#	153780
#	170007
#	187372
#
# Disc length: 2743 seconds
#
# Revision: 5
# Processed by: cddbd v1.5.2PL0 Copyright (c) Steve Scherf et al.
# Submitted via: EasyCDDAExtractor 15.3.0.1
#
DISCID=4a0ab507
DTITLE=Cher - Song For The Lonely
DYEAR=2001
DGENRE=Pop
TTITLE0=Song For The Lonely (Almighty Mix)
TTITLE1=Song For The Lonely (Illicit Vocal Mix)
TTITLE2=Song For The Lonely (Thunderpuss Club Mix)
TTITLE3=Song For The Lonely (Thunderpuss Sunrise Mix)
TTITLE4=Song For The Lonely (Almighty Radio Edit)
TTITLE5=Song For The Lonely (Illicit Radio)
TTITLE6=Song For The Lonely (Thunderpuss Club Mix Edit)
EXTD=YEAR: 2001
EXTT0=
EXTT1=
EXTT2=
EXTT3=
EXTT4=
EXTT5=
EXTT6=
PLAYORDER=
